<svg width="360" height="640" viewBox="0 0 360 640" xmlns="http://www.w3.org/2000/svg">
  <style>
    text {
      font-family: -apple-system, BlinkMacSystemFont, "Segoe UI", Roboto, Helvetica, Arial, sans-serif;
      fill: #ffffff;
    }

    .icon-fill {
      fill: #ffffff;
    }

    .text-shadow {
      text-shadow: 1px 1px 2px rgba(0, 0, 0, 0.5);
    }

    .sidebar-icon-wrap {
      text-anchor: middle;
      font-size: 12px;
      font-weight: 600;
    }
  </style>

  <rect width="100%" height="100%" fill="#111" />
  <linearGradient id="vidGrad" x1="0" y1="0" x2="0" y2="1">
    <stop offset="0%" stop-color="#333" />
    <stop offset="50%" stop-color="#1a1a1a" />
    <stop offset="100%" stop-color="#000" />
  </linearGradient>
  <rect width="100%" height="100%" fill="url(#vidGrad)" opacity="0.8" />
  <circle cx="180" cy="320" r="100" fill="#555" opacity="0.2" filter="blur(20px)" />


  <g transform="translate(0, 40)">
    <text x="20" y="10" font-size="16" opacity="0.7">LIVE</text>
    <circle cx="335" cy="5" r="8" stroke="#fff" stroke-width="2" fill="none" opacity="0.7" />
    <line x1="340" y1="10" x2="346" y2="16" stroke="#fff" stroke-width="2" opacity="0.7" stroke-linecap="round" />

    <text x="130" y="10" font-size="16" font-weight="600" opacity="0.6" class="text-shadow">Following</text>
    <text x="210" y="10" font-size="17" font-weight="700" class="text-shadow">For You</text>
    <rect x="210" y="18" width="20" height="2" fill="#fff" rx="1" />
  </g>


  <g transform="translate(325, 250)">
    <g class="sidebar-icon-wrap">
      <circle cx="0" cy="0" r="22" fill="#eee" stroke="#fff" stroke-width="1" />
      <image
        href="data:image/svg+xml,%3Csvg xmlns='http://www.w3.org/2000/svg' viewBox='0 0 100 100'%3E%3Crect width='100' height='100' fill='%23ccc'/%3E%3Ccircle cx='50' cy='40' r='20' fill='%23999'/%3E%3Cpath d='M20 90 Q 50 60 80 90' stroke='%23999' stroke-width='5' fill='none'/%3E%3C/svg%3E"
        x="-22" y="-22" width="44" height="44" clip-path="circle(22px at center)" />
      <circle cx="0" cy="22" r="10" fill="#fe2c55" />
      <path d="M0 17 V 27 M -5 22 H 5" stroke="#fff" stroke-width="2" stroke-linecap="round" />
    </g>

    <g transform="translate(0, 65)" class="sidebar-icon-wrap">
      <path d="M0 15 C-10 5 -20 0 -15 -10 C-10 -20 0 -10 0 -10 C0 -10 10 -20 15 -10 C20 0 10 5 0 15 Z" fill="#fff"
        class="text-shadow" />
      <text y="35">88.8K</text>
    </g>

    <g transform="translate(0, 130)" class="sidebar-icon-wrap">
      <path d="M-16 -8 Q-16 -18 0 -18 Q 16 -18 16 -8 Q 16 2 0 2 L -8 8 L -10 2 Q -16 2 -16 -8" fill="#fff"
        class="text-shadow" />
      <text y="35">1234</text>
    </g>

    <g transform="translate(0, 195)" class="sidebar-icon-wrap">
      <path d="M-12 -4 L0 8 L12 -4 M0 8 V -18" stroke="#fff" stroke-width="3" fill="none" stroke-linecap="round"
        stroke-linejoin="round" class="text-shadow" />
      <text y="35">Share</text>
    </g>

    <g transform="translate(0, 270)">
      <circle cx="0" cy="0" r="22" fill="#222" stroke="#444" stroke-width="6" />
      <circle cx="0" cy="0" r="10" fill="url(#vidGrad)" />
      <path d="M-30 -20 Q -40 -40 -20 -50" stroke="#fff" stroke-width="2" fill="none" opacity="0.6" />
      <path d="M-25 -10 Q -35 -30 -15 -40" stroke="#fff" stroke-width="2" fill="none" opacity="0.4" />
    </g>
  </g>


  <g transform="translate(15, 520)">
    <text x="0" y="0" font-size="17" font-weight="700" class="text-shadow">@svg_designer_bot</text>
    <text x="0" y="22" font-size="14" class="text-shadow">
      Mimicking the TikTok UI with SVG! #svg #design #ui
    </text>
    <g transform="translate(0, 40)">
      <path d="M0 0 V 15 M 0 15 L 10 10 M 10 10 V -5 L 0 0" stroke="#fff" stroke-width="2" fill="none" />
      <text x="15" y="10" font-size="13" class="text-shadow">Original Sound - SVG Beats 🎵</text>
    </g>
  </g>


  <g transform="translate(0, 580)">
    <rect x="0" y="0" width="360" height="60" fill="#000" opacity="0.8" />

    <g transform="translate(40, 30)" opacity="0.9">
      <path d="M-10 0 L0 -10 L10 0 M-8 -2 V 10 H 8 V -2" stroke="#fff" stroke-width="2" fill="none"
        stroke-linecap="round" stroke-linejoin="round" />
    </g>

    <g transform="translate(110, 30)" opacity="0.5">
      <circle cx="0" cy="0" r="9" stroke="#fff" stroke-width="2" fill="none" />
      <polygon points="-3,3 3,-3 0,5" fill="#fff" />
    </g>

    <g transform="translate(180, 30)">
      <rect x="-22" y="-14" width="44" height="28" rx="8" fill="#00f7ef" opacity="0.9" transform="translate(-2, 0)" />
      <rect x="-22" y="-14" width="44" height="28" rx="8" fill="#fe2c55" opacity="0.9" transform="translate(2, 0)" />
      <rect x="-22" y="-14" width="44" height="28" rx="8" fill="#fff" />
      <path d="M0 -7 V 7 M -7 0 H 7" stroke="#111" stroke-width="3" stroke-linecap="round" />
    </g>

    <g transform="translate(250, 30)" opacity="0.5">
      <path d="M-10 -8 H 10 V 8 A 4 4 0 0 1 6 12 H -6 A 4 4 0 0 1 -10 8 Z" stroke="#fff" stroke-width="2" fill="none" />
      <path d="M-10 -4 L 0 4 L 10 -4" stroke="#fff" stroke-width="2" fill="none" />
    </g>

    <g transform="translate(320, 30)" opacity="0.5">
      <circle cx="0" cy="-4" r="5" stroke="#fff" stroke-width="2" fill="none" />
      <path d="M-9 10 Q 0 0 9 10" stroke="#fff" stroke-width="2" fill="none" />
    </g>
  </g>
</svg>